<?xml version="1.0" encoding="utf-8"?>
<!-- Generator: Adobe Illustrator 28.3.0, SVG Export Plug-In . SVG Version: 6.00 Build 0)  -->
<svg version="1.0" id="圖層_1" xmlns="http://www.w3.org/2000/svg" xmlns:xlink="http://www.w3.org/1999/xlink" x="0px" y="0px"
	 viewBox="0 0 512 279" enable-background="new 0 0 512 279" xml:space="preserve">
<g>
	<g>
		<path d="M36.3,133.9c1.4-2.8,4.2-4.6,7.3-4.6H51c3.1,0,5.9,1.8,7.3,4.6l30.3,61.9c0.6,1.1,0.5,2.4-0.2,3.4c-0.7,1-1.8,1.6-3,1.6
			h-7.9c-2,0-3.9-1.2-4.8-3L51,153.3c-0.7-1.4-2.1-2.3-3.7-2.3c-1.5,0-3,0.9-3.7,2.3l-21.8,44.5c-0.9,1.8-2.8,3-4.8,3H9.1
			c-1.2,0-2.4-0.6-3-1.6c-0.6-1-0.7-2.3-0.2-3.4L36.3,133.9z"/>
		<path d="M126.1,129.3c-12.4,0-22.8,10.2-22.8,22.7v26.1c0,12.5,10.3,22.7,22.8,22.7h49.5v0c0.9,0,1.8-0.4,2.5-1
			c0.7-0.7,1-1.6,1-2.5h0v-8.1h0c0-1.9-1.6-3.6-3.5-3.5v0H125c-3.5,0-6.5-3-6.5-6.5v-3.7h0c0-1.5,1.3-2.8,2.8-2.8v0h54.4v0
			c0.9,0,1.8-0.4,2.5-1c0.7-0.7,1-1.6,1-2.5h0V161h0c0-1.9-1.6-3.6-3.5-3.5v0h-54.4v0c-0.7,0-1.4-0.3-1.9-0.8
			c-0.5-0.5-0.8-1.2-0.8-1.9h0V151c0-3.5,3-6.5,6.5-6.5h50.7v0c1.9,0,3.6-1.6,3.5-3.5h0v-8.1h0c0-1.9-1.6-3.6-3.5-3.5v0H126.1z"/>
		<path d="M199.3,197.2c0,0.9,0.4,1.8,1,2.5c0.7,0.7,1.6,1,2.5,1v0h8.1v0c0.9,0,1.8-0.4,2.5-1c0.7-0.7,1-1.6,1-2.5h0v-21.8h0
			c0-0.7,0.3-1.4,0.8-1.9c0.5-0.5,1.2-0.8,1.9-0.8v0h34c1.5,0.1,3,1,3.8,2.3l11.1,22.8c0.7,1.4,2.1,2.4,3.6,2.8
			c0.6,0.3,8.4,0.1,9.2,0.2c3.1,0,4.5-2.3,3.1-5l-11-22.6c-0.7-1.4,0-3.1,1.3-3.7l1.5-1l1.3-1c5.9-5,8.9-13.3,7.1-20.9
			c-2.2-10.1-12.1-17.3-22.3-17.2l-55.3,0v0c-1.4,0-2.8,0.6-3.8,1.6c-1,1-1.6,2.4-1.6,3.8h0v9.8h61.8c3.5,0,6.5,3,6.5,6.5
			c0,3.5-3,6.5-6.5,6.5h-61.8L199.3,197.2L199.3,197.2z"/>
		<path d="M385.7,156.3c0-7.1-2.8-14-7.9-19.1c-5.1-5.1-11.9-7.9-19.1-7.9v0H324v0c-7.1,0-14,2.8-19.1,7.9
			c-5.1,5.1-7.9,11.9-7.9,19.1h0v17.5h0c0,7.1,2.8,14,7.9,19.1c5.1,5.1,11.9,7.9,19.1,7.9v0h34.8v0c7.1,0,14-2.8,19.1-7.9
			c5.1-5.1,7.9-11.9,7.9-19.1h0L385.7,156.3L385.7,156.3z M370.6,173.8c0,6.5-5.3,11.8-11.8,11.8H324c-6.5,0-11.8-5.3-11.8-11.8
			v-17.5c0-6.5,5.3-11.8,11.8-11.8h34.8c6.5,0,11.8,5.3,11.8,11.8V173.8z"/>
	</g>
	<g>
		<path d="M322.5,233.7c0-4.7-1.9-9.3-5.2-12.6c-3.3-3.3-7.9-5.2-12.6-5.2v0h-23v0c-4.7,0-9.3,1.9-12.6,5.2
			c-3.3,3.3-5.2,7.9-5.2,12.6h0v11.6h0c0,4.7,1.9,9.3,5.2,12.6c3.3,3.3,7.9,5.2,12.6,5.2v0h23v0c4.7,0,9.3-1.9,12.6-5.2
			c3.3-3.3,5.2-7.9,5.2-12.6h0L322.5,233.7L322.5,233.7z M312.5,245.2c0,4.3-3.5,7.8-7.8,7.8h-23c-4.3,0-7.8-3.5-7.8-7.8v-11.6
			c0-4.3,3.5-7.8,7.8-7.8h23c4.3,0,7.8,3.5,7.8,7.8V245.2z"/>
		<path d="M390.6,233.7c0-4.7-1.9-9.3-5.2-12.6c-3.3-3.3-7.9-5.2-12.6-5.2v0h-23v0c-4.7,0-9.3,1.9-12.6,5.2
			c-3.3,3.3-5.2,7.9-5.2,12.6h0v11.6h0c0,4.7,1.9,9.3,5.2,12.6c3.3,3.3,7.9,5.2,12.6,5.2v0h23v0c4.7,0,9.3-1.9,12.6-5.2
			c3.3-3.3,5.2-7.9,5.2-12.6h0L390.6,233.7L390.6,233.7z M380.5,245.2c0,4.3-3.5,7.8-7.8,7.8h-23c-4.3,0-7.8-3.5-7.8-7.8v-11.6
			c0-4.3,3.5-7.8,7.8-7.8h23c4.3,0,7.8,3.5,7.8,7.8V245.2z"/>
		<path d="M454.5,253.7c-0.4-0.4-1-0.7-1.7-0.7v0h-35c-4.3,0-7.8-3.5-7.8-7.8v-27h0c0-1.3-1.1-2.4-2.3-2.3v0h-5.3v0
			c-0.6,0-1.2,0.2-1.7,0.7s-0.7,1-0.7,1.7h0v27h0c0,4.7,1.9,9.3,5.2,12.6c3.3,3.3,7.9,5.2,12.6,5.2v0h35v0c1.3,0,2.4-1.1,2.3-2.3h0
			v-5.3h0C455.1,254.7,454.9,254.1,454.5,253.7"/>
		<path d="M199.3,233.7v11.6l0,1.3c0.7,9.2,8.5,16.5,17.8,16.5h35v0c1.3,0,2.4-1.1,2.3-2.3h0v-5.3h0c0-1.3-1.1-2.4-2.3-2.3v0h-35
			c-3.9,0-7.3-3.1-7.7-6.9l0-0.9v-11.6c0-4.2,3.6-7.8,7.8-7.8h35v0c1.3,0,2.4-1.1,2.3-2.3h0v-5.3h0c0-1.3-1.1-2.4-2.3-2.3v0h-35
			C207.4,215.9,199.3,223.9,199.3,233.7z"/>
	</g>
	<g>
		<path d="M466.7,200.8h-62.2c-2.5,0-4.5-2-4.5-4.5v-62.2L466.7,200.8z"/>
		<path d="M505.6,129.5l-43.3,43.3c-2.1,2.1-5.5,2.1-7.6,0l-43.3-43.3L505.6,129.5z"/>
		<path d="M482.7,51.5v61.3c0,3-2.4,5.4-5.4,5.4h-61.3L482.7,51.5z"/>
		<path d="M411.4,12.5l43.3,43.3c2.1,2.1,2.1,5.5,0,7.6l-43.3,43.3L411.4,12.5z"/>
		<path d="M333.4,35.4h61.3c3,0,5.4,2.4,5.4,5.4V102L333.4,35.4z"/>
	</g>
</g>
</svg>
